<svg id="Layer_1" data-name="Layer 1" xmlns="http://www.w3.org/2000/svg" viewBox="0 0 2000 2000"><defs><style>.cls-1{fill:#45a775;}</style></defs><path class="cls-1" d="M349.12,1055c-19.19-4.79-34.61,1.37-47.2,16.06-1.92,2.24-4.54,3.86-6.67,5.94-6.67,6.54-14.39,9-23.12,5-8.39-3.78-11.54-10.87-11.6-19.91-.2-26.3-.94-52.6-1-78.9,0-28.2-9.7-52.14-29.38-72.41-18.72-19.29-17.74-48.8.85-68.51,16.08-17,34.52-23.58,57.12-15.69,6.64,2.32,12.21,6.49,17.28,11.38,18.71,18.08,41.13,27.37,67.17,27.48q42.5.16,85-.18c9.06-.08,16.13,2.86,20,11.28,4.06,8.77,1.51,16.31-4.84,23.11-5.93,6.35-11.43,13.11-17.43,19.39a25.11,25.11,0,0,0-7.27,21c1.12,11.6,1.77,23.24,2.53,34.87.62,9.45-3.7,15.22-12.87,17-28.61,5.44-45.59,22.31-50.91,51-1.7,9.15-7.27,13.46-16.88,13.26C363,1056,356.07,1055.4,349.12,1055Z"/><path class="cls-1" d="M457.07,1006.65c4.35,0,6.48,2.28,7.95,5.34q22.35,46.52,44.64,93.06c1.65,3.43,1.73,6.74-1.06,9.6s-6,3-9.55,1.34q-46.92-22.47-93.87-44.92c-4-1.92-6.25-4.92-4.83-9.57,8.48-27.74,27-45.47,54.37-54.47A11.22,11.22,0,0,1,457.07,1006.65Z"/><path class="cls-1" d="M353,1133.36c0,11.15-.06,22.3,0,33.45,0,4.7-1.36,8.49-6.27,9.65-4.63,1.1-7.35-1.72-9.45-5.49-10.84-19.48-21.63-39-32.69-58.33-3-5.32-1.9-9,2.23-13.06,11.23-11.16,24.26-13.43,39.08-9.22,5.07,1.45,7.46,4.24,7.4,9.54-.14,11.15,0,22.3,0,33.46Z"/><path class="cls-1" d="M527.2,959.86c-10.93,0-21.85-.15-32.77.06-5.91.11-8.88-2.35-10.55-8.09-4.48-15.35-1.05-28.25,10.41-39.33,3.58-3.46,7-4.07,11.35-1.66q29.83,16.73,59.73,33.36c3.55,2,5.94,4.79,5,9-1,4.5-4.38,6.29-8.89,6.28-11.42,0-22.83,0-34.25,0Z"/><path class="cls-1" d="M754.83,923.5V901.72h37.66c.06.62.18,1.26.18,1.89,0,48.87.16,97.74-.15,146.61-.13,20.37-6.26,38.94-20,54.47-11.31,12.8-25.68,20.6-42.16,24.37-24.15,5.53-48.12,4.91-71.39-4.18-19.71-7.7-33.16-21.87-40.88-41.53a7.82,7.82,0,0,1-.26-1.15l34.71-13.34c1.3,2.54,2.39,5,3.75,7.25A41.75,41.75,0,0,0,680,1094.84c15.5,5,31.08,5,46.29-.91,16.78-6.51,25.91-19.29,27.92-37,.58-5.11.09-10.35.09-15.58a2.7,2.7,0,0,0-.67.49c-12.48,15-28.6,22.89-47.89,24.35-23.52,1.78-44.72-4.3-62.7-19.85-16.16-14-25.21-31.93-27.59-53.11-2.81-25,3.24-47.63,19.65-67,14.4-17,33-26.1,55.11-28.27,15.09-1.48,29.58.61,43.15,7.68a64.59,64.59,0,0,1,19.31,15.46C753.23,921.74,753.78,922.33,754.83,923.5Zm-2.64,60.56c-.09-1.48-.14-3.41-.33-5.33-1.23-12.8-5.87-24-15.48-32.84-8.44-7.75-18.57-11.48-29.94-11.85-16.9-.56-30.83,5.56-41,19.26-8.59,11.63-11,24.88-9.27,39.09,2.88,24.3,22.55,42.25,47,42.53,12.63.14,24-3.57,33.34-12.26C747.61,1012.39,751.9,999.24,752.19,984.06Z"/><path class="cls-1" d="M1173.87,1054.14v74.56h-40.69v-227h37.63v21.69c2.31-2.42,4.06-4.4,6-6.22,14.38-13.79,31.82-19.7,51.45-19.64,39.21.11,70.65,25.34,79.74,64.44,6,25.86,3.58,50.91-10.45,73.92-14.2,23.29-35.33,36-62.46,38.71-16.61,1.63-32.47-1-46.85-9.81C1183.18,1061.75,1178.69,1057.78,1173.87,1054.14Zm96-67.71c0-1.68.07-3.36,0-5a38.72,38.72,0,0,0-.47-4c-2-13.42-7.69-24.9-18.49-33.45-10.24-8.11-22-11.08-34.89-9.71-18,1.91-31.15,11-38.73,27.58-5.1,11.15-6,22.93-4.22,34.93a50.28,50.28,0,0,0,10.56,24.91c10,12.33,23.33,17.52,38.94,17.28a44.93,44.93,0,0,0,31.74-13C1265.31,1015.13,1269.78,1001.61,1269.82,986.43Z"/><path class="cls-1" d="M1103.94,999.18H972.47a51.54,51.54,0,0,0,9.59,21.52c9.63,12.5,22.61,18.45,38.17,19.19a63.57,63.57,0,0,0,20.9-2.22c10.42-3,18.11-9.49,23.46-18.86.45-.78.91-1.57,1.48-2.57l32.35,20.69c-3.09,4-5.86,8-9.11,11.69-13,14.51-29.54,22.13-48.53,25-15.49,2.34-30.94,2.29-46.08-2.08-32.53-9.38-52.69-30.87-60.17-63.73-5.27-23.12-2.64-45.6,9.42-66.32,15-25.85,37.59-40.8,67.51-43.46,26.88-2.39,50.61,5.35,69.64,25,15.4,15.9,23.05,35.28,23.74,57.36.17,5.26-.27,10.55-.47,15.82C1104.34,997.1,1104.11,998,1103.94,999.18Zm-38.4-28.81c-4.2-26-23.15-41.85-48.67-40.52-26.31,1.37-41.06,20.82-44.21,40.52Z"/><path class="cls-1" d="M1782.44,999.16h-131.5c2.43,11,7.2,20.44,15.4,27.89,12.27,11.15,27,14.09,43,12.56,8.56-.82,16.58-3.22,23.47-8.63a41.9,41.9,0,0,0,10.43-12.44c.4-.71.84-1.4,1.37-2.28l32.33,20.68c-3.11,4-5.91,8.07-9.15,11.72-12.63,14.2-28.83,21.8-47.31,24.8-15.87,2.58-31.76,2.58-47.33-1.93-32.52-9.41-52.66-30.91-60.13-63.78-5.23-23-2.63-45.44,9.34-66.09,15-26,37.64-41,67.66-43.64,26.89-2.37,50.61,5.39,69.63,25,15.32,15.84,23,35.15,23.69,57.12.18,5.35-.27,10.72-.47,16.07A26,26,0,0,1,1782.44,999.16Zm-38.4-28.8c-4-25.76-22.94-41.69-48.39-40.52-26.25,1.21-41.25,20.49-44.49,40.52Z"/><path class="cls-1" d="M1350.31,936.65H1320.8V901.56h9.29c2.18,0,4.36,0,6.54,0,10.39-.15,16-5.63,16.18-16,.14-8.29,0-16.59,0-24.89v-3h39.74V901.5h44.48v35.15h-45.39c-.07.73-.16,1.21-.16,1.69,0,23,0,45.92.12,68.88a38.89,38.89,0,0,0,1.76,10.85c3.3,10.74,12,16.84,24.21,17.2,6.28.19,12.57.06,18.85.08h1.83v35.45a3.11,3.11,0,0,1-.87.24c-11.81-.15-23.66.25-35.42-.63-15.4-1.14-28.9-7-38.93-19.3-7.43-9.12-10.94-19.85-12.16-31.39a128.89,128.89,0,0,1-.58-13q-.07-33.31,0-66.62Z"/><path class="cls-1" d="M1541.55,835.76h40.5V1070.9h-40.5Z"/><path class="cls-1" d="M921.14,935.21c-6.3,1-12.52,1.59-18.45,3.18C890,941.8,880,948.84,875.42,961.7A44.39,44.39,0,0,0,873.14,976c-.2,30.58-.1,61.17-.1,91.75v3.17H832.4V901.73h38.36v18.7c13.85-15.1,30.5-22.39,50.38-22.91Z"/><path class="cls-1" d="M1463.59,901.65h40.49V1070.9h-40.49Z"/><rect class="cls-1" x="1464.59" y="840.34" width="40.49" height="40.49"/></svg>